<svg width="24" height="24" viewBox="0 0 24 24" xmlns="http://www.w3.org/2000/svg" xmlns:xlink="http://www.w3.org/1999/xlink"><path d="M8.54479692,19.5 L15.4552031,19.5 C15.5923221,19.5 15.7034789,19.3888431 15.7034789,19.2517241 C15.7034789,19.1702537 15.6635086,19.0939675 15.5965242,19.0475937 L13,17.25 L13,6 L15.75,6 L17.5350843,9.1887403 C17.6020636,9.30838719 17.7533541,9.35108266 17.873001,9.2841033 C17.9514259,9.24020037 18,9.15734074 18,9.06746344 L18,5.24827586 C18,5.11115689 17.8888431,5 17.7517241,5 L6.24827586,5 C6.11115689,5 6,5.11115689 6,5.24827586 L6,9.06746344 C6,9.20458241 6.11115689,9.3157393 6.24827586,9.3157393 C6.33815316,9.3157393 6.42101279,9.26716518 6.46491572,9.1887403 L8.25,6 L11,6 L11,17.25 L8.40347582,19.0475937 C8.29073767,19.1256432 8.26261696,19.2803071 8.34066644,19.3930452 C8.38704024,19.4600296 8.46332646,19.5 8.54479692,19.5 Z"></path></svg>
